STARTFONT 2.1
COMMENT AUTOMATICALLY GENERATED FILE. DO NOT EDIT!
COMMENT Generated with 'ucs2any.pl lubBI10.bdf ../../../fonts/util/map-ISO8859-1 ISO8859-1'
COMMENT from an ISO10646-1 encoded source BDF font.
COMMENT ucs2any.pl by Markus Kuhn <mkuhn@acm.org>, 2000.
COMMENT $Xorg: $
COMMENT ISO10646-1 extension by Markus Kuhn <mkuhn@acm.org>, 2001-03-20
COMMENT  (c) Copyright Bigelow & Holmes 1986, 1985. Lucida is a registered
COMMENT  trademark of Bigelow & Holmes. See LEGAL NOTICE file for terms 
COMMENT  of the license. 
FONT -B&H-LucidaBright-DemiBold-I-Normal--10-100-75-75-P-59-ISO8859-1
SIZE 10 72 72
FONTBOUNDINGBOX 17 11 -6 -2
STARTPROPERTIES 22
COMMENT Begin LogicalFontDescription
FONTNAME_REGISTRY ""
FOUNDRY "B&H"
FAMILY_NAME "LucidaBright"
WEIGHT_NAME "DemiBold"
SLANT "I"
SETWIDTH_NAME "Normal"
ADD_STYLE_NAME ""
PIXEL_SIZE 10
POINT_SIZE 100
RESOLUTION_X 75
RESOLUTION_Y 75
SPACING "P"
AVERAGE_WIDTH 59
CHARSET_REGISTRY "ISO8859"
CHARSET_ENCODING "1"
COMMENT END LogicalFontDescription
FONT_ASCENT 9
FONT_DESCENT 3
DEFAULT_CHAR 0
COPYRIGHT "Copyright Bigelow & Holmes 1986, 1985."
FACE_NAME "Lucida Bright Demibold Italic"
X_HEIGHT 5
CAP_HEIGHT 8
ENDPROPERTIES
CHARS 192
STARTCHAR defaultchar
ENCODING 0
SWIDTH 827 0
DWIDTH 8 0
BBX 9 7 0 0
BITMAP
AA80
0000
8080
0000
8080
0000
AA80
ENDCHAR
STARTCHAR space
ENCODING 32
SWIDTH 333 0
DWIDTH 3 0
BBX 1 1 0 0
BITMAP
00
ENDCHAR
STARTCHAR exclam
ENCODING 33
SWIDTH 265 0
DWIDTH 3 0
BBX 3 8 0 0
BITMAP
60
60
40
40
40
40
00
C0
ENDCHAR
STARTCHAR quotedbl
ENCODING 34
SWIDTH 451 0
DWIDTH 5 0
BBX 3 4 2 4
BITMAP
A0
A0
A0
A0
ENDCHAR
STARTCHAR numbersign
ENCODING 35
SWIDTH 636 0
DWIDTH 7 0
BBX 6 8 1 0
BITMAP
14
14
FC
48
48
FC
A0
A0
ENDCHAR
STARTCHAR dollar
ENCODING 36
SWIDTH 636 0
DWIDTH 6 0
BBX 5 9 1 -1
BITMAP
38
68
60
20
30
30
B0
E0
40
ENDCHAR
STARTCHAR percent
ENCODING 37
SWIDTH 772 0
DWIDTH 8 0
BBX 4 8 2 0
BITMAP
50
D0
C0
E0
50
70
B0
90
ENDCHAR
STARTCHAR ampersand
ENCODING 38
SWIDTH 773 0
DWIDTH 8 0
BBX 7 8 1 0
BITMAP
18
28
28
76
94
94
88
7C
ENDCHAR
STARTCHAR quotesingle
ENCODING 39
SWIDTH 247 0
DWIDTH 2 0
BBX 1 4 2 4
BITMAP
80
80
80
80
ENDCHAR
STARTCHAR parenleft
ENCODING 40
SWIDTH 336 0
DWIDTH 3 0
BBX 3 10 1 -2
BITMAP
20
40
40
80
80
80
80
80
80
80
ENDCHAR
STARTCHAR parenright
ENCODING 41
SWIDTH 336 0
DWIDTH 3 0
BBX 3 10 0 -2
BITMAP
20
20
20
20
20
20
20
40
40
80
ENDCHAR
STARTCHAR asterisk
ENCODING 42
SWIDTH 434 0
DWIDTH 5 0
BBX 4 3 1 5
BITMAP
20
F0
A0
ENDCHAR
STARTCHAR plus
ENCODING 43
SWIDTH 636 0
DWIDTH 6 0
BBX 6 7 1 0
BITMAP
10
10
10
FC
20
20
20
ENDCHAR
STARTCHAR comma
ENCODING 44
SWIDTH 265 0
DWIDTH 3 0
BBX 2 4 0 -2
BITMAP
C0
C0
40
80
ENDCHAR
STARTCHAR hyphen
ENCODING 45
SWIDTH 289 0
DWIDTH 3 0
BBX 2 1 1 3
BITMAP
C0
ENDCHAR
STARTCHAR period
ENCODING 46
SWIDTH 265 0
DWIDTH 3 0
BBX 2 1 0 0
BITMAP
C0
ENDCHAR
STARTCHAR slash
ENCODING 47
SWIDTH 515 0
DWIDTH 5 0
BBX 7 10 0 -2
BITMAP
02
04
0C
08
10
10
20
60
40
80
ENDCHAR
STARTCHAR zero
ENCODING 48
SWIDTH 623 0
DWIDTH 6 0
BBX 5 8 1 0
BITMAP
30
48
48
88
88
90
90
60
ENDCHAR
STARTCHAR one
ENCODING 49
SWIDTH 636 0
DWIDTH 6 0
BBX 4 8 1 0
BITMAP
70
30
30
20
20
20
60
F0
ENDCHAR
STARTCHAR two
ENCODING 50
SWIDTH 636 0
DWIDTH 6 0
BBX 6 8 1 0
BITMAP
38
44
04
0C
10
60
40
FC
ENDCHAR
STARTCHAR three
ENCODING 51
SWIDTH 636 0
DWIDTH 6 0
BBX 5 8 1 0
BITMAP
38
48
08
70
10
08
90
F0
ENDCHAR
STARTCHAR four
ENCODING 52
SWIDTH 636 0
DWIDTH 6 0
BBX 6 8 1 0
BITMAP
0C
1C
28
48
FC
18
18
38
ENDCHAR
STARTCHAR five
ENCODING 53
SWIDTH 636 0
DWIDTH 6 0
BBX 5 8 1 0
BITMAP
78
40
40
60
10
18
90
E0
ENDCHAR
STARTCHAR six
ENCODING 54
SWIDTH 636 0
DWIDTH 6 0
BBX 5 8 2 0
BITMAP
38
48
40
F0
90
90
90
60
ENDCHAR
STARTCHAR seven
ENCODING 55
SWIDTH 636 0
DWIDTH 6 0
BBX 6 8 1 0
BITMAP
FC
04
18
20
20
40
40
80
ENDCHAR
STARTCHAR eight
ENCODING 56
SWIDTH 636 0
DWIDTH 6 0
BBX 5 8 1 0
BITMAP
30
48
48
70
50
88
90
60
ENDCHAR
STARTCHAR nine
ENCODING 57
SWIDTH 636 0
DWIDTH 6 0
BBX 5 8 1 0
BITMAP
30
48
48
48
78
10
90
E0
ENDCHAR
STARTCHAR colon
ENCODING 58
SWIDTH 265 0
DWIDTH 3 0
BBX 3 5 0 0
BITMAP
60
00
00
00
C0
ENDCHAR
STARTCHAR semicolon
ENCODING 59
SWIDTH 265 0
DWIDTH 3 0
BBX 3 7 0 -2
BITMAP
60
00
00
40
C0
40
80
ENDCHAR
STARTCHAR less
ENCODING 60
SWIDTH 636 0
DWIDTH 6 0
BBX 6 7 0 0
BITMAP
04
18
E0
80
C0
70
08
ENDCHAR
STARTCHAR equal
ENCODING 61
SWIDTH 636 0
DWIDTH 6 0
BBX 6 3 1 1
BITMAP
FC
00
FC
ENDCHAR
STARTCHAR greater
ENCODING 62
SWIDTH 636 0
DWIDTH 6 0
BBX 7 7 1 0
BITMAP
20
38
04
02
1C
70
80
ENDCHAR
STARTCHAR question
ENCODING 63
SWIDTH 493 0
DWIDTH 5 0
BBX 4 8 2 0
BITMAP
E0
90
90
10
60
C0
00
C0
ENDCHAR
STARTCHAR at
ENCODING 64
SWIDTH 861 0
DWIDTH 9 0
BBX 6 8 2 0
BITMAP
38
44
74
DC
BC
FC
80
70
ENDCHAR
STARTCHAR A
ENCODING 65
SWIDTH 765 0
DWIDTH 8 0
BBX 8 8 0 0
BITMAP
04
0C
1C
24
3E
22
42
C7
ENDCHAR
STARTCHAR B
ENCODING 66
SWIDTH 651 0
DWIDTH 7 0
BBX 7 8 0 0
BITMAP
7E
32
32
3C
74
62
64
FC
ENDCHAR
STARTCHAR C
ENCODING 67
SWIDTH 740 0
DWIDTH 7 0
BBX 7 8 1 0
BITMAP
1E
62
40
80
80
80
C0
7C
ENDCHAR
STARTCHAR D
ENCODING 68
SWIDTH 822 0
DWIDTH 8 0
BBX 8 8 0 0
BITMAP
7E
33
31
21
61
62
66
FC
ENDCHAR
STARTCHAR E
ENCODING 69
SWIDTH 630 0
DWIDTH 6 0
BBX 7 8 0 0
BITMAP
7E
32
24
3C
68
60
64
FC
ENDCHAR
STARTCHAR F
ENCODING 70
SWIDTH 602 0
DWIDTH 6 0
BBX 7 8 0 0
BITMAP
7E
32
24
3C
68
60
60
E0
ENDCHAR
STARTCHAR G
ENCODING 71
SWIDTH 780 0
DWIDTH 8 0
BBX 7 8 1 0
BITMAP
3E
62
40
80
9E
84
CC
7C
ENDCHAR
STARTCHAR H
ENCODING 72
SWIDTH 827 0
DWIDTH 8 0
BBX 9 8 0 0
BITMAP
7B80
2300
2300
3F00
6200
6200
6200
EF00
ENDCHAR
STARTCHAR I
ENCODING 73
SWIDTH 372 0
DWIDTH 4 0
BBX 5 8 0 0
BITMAP
78
10
10
20
20
60
60
F0
ENDCHAR
STARTCHAR J
ENCODING 74
SWIDTH 478 0
DWIDTH 5 0
BBX 6 10 0 -2
BITMAP
1C
08
18
18
18
10
10
30
B0
E0
ENDCHAR
STARTCHAR K
ENCODING 75
SWIDTH 746 0
DWIDTH 7 0
BBX 8 8 0 0
BITMAP
7B
32
24
28
78
68
64
EE
ENDCHAR
STARTCHAR L
ENCODING 76
SWIDTH 611 0
DWIDTH 6 0
BBX 6 8 0 0
BITMAP
78
20
20
20
60
64
64
FC
ENDCHAR
STARTCHAR M
ENCODING 77
SWIDTH 926 0
DWIDTH 9 0
BBX 10 8 0 0
BITMAP
60C0
3380
3280
3700
5F00
4D00
4900
C380
ENDCHAR
STARTCHAR N
ENCODING 78
SWIDTH 797 0
DWIDTH 8 0
BBX 9 8 0 0
BITMAP
6180
3100
3100
2900
4A00
4600
4600
C200
ENDCHAR
STARTCHAR O
ENCODING 79
SWIDTH 831 0
DWIDTH 8 0
BBX 7 8 2 0
BITMAP
3C
64
46
86
84
84
88
70
ENDCHAR
STARTCHAR P
ENCODING 80
SWIDTH 628 0
DWIDTH 6 0
BBX 7 8 0 0
BITMAP
7C
32
32
36
7C
60
60
F0
ENDCHAR
STARTCHAR Q
ENCODING 81
SWIDTH 835 0
DWIDTH 8 0
BBX 7 10 2 -2
BITMAP
3C
64
46
86
84
84
8C
78
18
06
ENDCHAR
STARTCHAR R
ENCODING 82
SWIDTH 711 0
DWIDTH 7 0
BBX 7 8 0 0
BITMAP
7E
32
32
3C
68
64
64
F6
ENDCHAR
STARTCHAR S
ENCODING 83
SWIDTH 587 0
DWIDTH 6 0
BBX 6 8 1 0
BITMAP
3C
44
40
20
18
08
88
F0
ENDCHAR
STARTCHAR T
ENCODING 84
SWIDTH 716 0
DWIDTH 7 0
BBX 7 8 1 0
BITMAP
FE
10
30
30
20
20
20
70
ENDCHAR
STARTCHAR U
ENCODING 85
SWIDTH 775 0
DWIDTH 8 0
BBX 6 8 2 0
BITMAP
E4
44
44
88
88
88
88
70
ENDCHAR
STARTCHAR V
ENCODING 86
SWIDTH 741 0
DWIDTH 7 0
BBX 8 8 1 0
BITMAP
E3
42
42
44
28
28
30
30
ENDCHAR
STARTCHAR W
ENCODING 87
SWIDTH 922 0
DWIDTH 9 0
BBX 9 8 1 0
BITMAP
E980
4900
5900
5B00
7B00
7E00
6C00
4800
ENDCHAR
STARTCHAR X
ENCODING 88
SWIDTH 672 0
DWIDTH 7 0
BBX 8 8 0 0
BITMAP
33
12
12
1C
38
68
44
CE
ENDCHAR
STARTCHAR Y
ENCODING 89
SWIDTH 669 0
DWIDTH 7 0
BBX 7 8 1 0
BITMAP
E6
44
44
28
30
20
20
F0
ENDCHAR
STARTCHAR Z
ENCODING 90
SWIDTH 684 0
DWIDTH 7 0
BBX 7 8 1 0
BITMAP
3E
24
48
10
10
20
44
FC
ENDCHAR
STARTCHAR bracketleft
ENCODING 91
SWIDTH 336 0
DWIDTH 3 0
BBX 4 10 0 -2
BITMAP
30
20
60
40
40
40
40
C0
80
C0
ENDCHAR
STARTCHAR backslash
ENCODING 92
SWIDTH 515 0
DWIDTH 5 0
BBX 3 10 2 -2
BITMAP
80
80
80
40
40
40
40
20
20
20
ENDCHAR
STARTCHAR bracketright
ENCODING 93
SWIDTH 336 0
DWIDTH 3 0
BBX 4 10 0 -2
BITMAP
30
10
30
20
20
20
20
60
40
C0
ENDCHAR
STARTCHAR asciicircum
ENCODING 94
SWIDTH 636 0
DWIDTH 6 0
BBX 6 6 0 1
BITMAP
18
28
28
68
88
84
ENDCHAR
STARTCHAR underscore
ENCODING 95
SWIDTH 500 0
DWIDTH 5 0
BBX 4 1 0 -1
BITMAP
F0
ENDCHAR
STARTCHAR grave
ENCODING 96
SWIDTH 599 0
DWIDTH 6 0
BBX 2 1 3 7
BITMAP
C0
ENDCHAR
STARTCHAR a
ENCODING 97
SWIDTH 634 0
DWIDTH 6 0
BBX 6 5 1 0
BITMAP
3C
4C
88
B8
FC
ENDCHAR
STARTCHAR b
ENCODING 98
SWIDTH 633 0
DWIDTH 6 0
BBX 6 8 1 0
BITMAP
60
60
60
5C
74
44
C8
F0
ENDCHAR
STARTCHAR c
ENCODING 99
SWIDTH 524 0
DWIDTH 5 0
BBX 5 5 1 0
BITMAP
38
50
80
80
F0
ENDCHAR
STARTCHAR d
ENCODING 100
SWIDTH 634 0
DWIDTH 6 0
BBX 6 8 1 0
BITMAP
0C
0C
0C
38
48
98
B8
F8
ENDCHAR
STARTCHAR e
ENCODING 101
SWIDTH 548 0
DWIDTH 5 0
BBX 4 5 1 0
BITMAP
30
50
E0
90
F0
ENDCHAR
STARTCHAR f
ENCODING 102
SWIDTH 415 0
DWIDTH 4 0
BBX 5 10 1 -2
BITMAP
18
28
20
70
40
40
40
40
C0
80
ENDCHAR
STARTCHAR g
ENCODING 103
SWIDTH 628 0
DWIDTH 6 0
BBX 6 7 0 -2
BITMAP
3C
48
48
98
68
98
F0
ENDCHAR
STARTCHAR h
ENCODING 104
SWIDTH 656 0
DWIDTH 7 0
BBX 6 8 1 0
BITMAP
60
60
60
5C
74
44
C8
CC
ENDCHAR
STARTCHAR i
ENCODING 105
SWIDTH 319 0
DWIDTH 3 0
BBX 3 8 1 0
BITMAP
60
00
00
C0
40
40
40
C0
ENDCHAR
STARTCHAR j
ENCODING 106
SWIDTH 381 0
DWIDTH 4 0
BBX 5 10 0 -2
BITMAP
18
00
00
38
10
10
30
30
A0
C0
ENDCHAR
STARTCHAR k
ENCODING 107
SWIDTH 626 0
DWIDTH 6 0
BBX 6 8 1 0
BITMAP
60
60
60
6C
58
70
D0
CC
ENDCHAR
STARTCHAR l
ENCODING 108
SWIDTH 319 0
DWIDTH 3 0
BBX 3 8 1 0
BITMAP
60
40
40
40
40
40
40
C0
ENDCHAR
STARTCHAR m
ENCODING 109
SWIDTH 969 0
DWIDTH 10 0
BBX 9 5 1 0
BITMAP
EF80
7E80
6C80
C900
C980
ENDCHAR
STARTCHAR n
ENCODING 110
SWIDTH 656 0
DWIDTH 7 0
BBX 6 5 1 0
BITMAP
EC
54
64
48
CC
ENDCHAR
STARTCHAR o
ENCODING 111
SWIDTH 599 0
DWIDTH 6 0
BBX 5 5 1 0
BITMAP
30
48
88
90
E0
ENDCHAR
STARTCHAR p
ENCODING 112
SWIDTH 639 0
DWIDTH 6 0
BBX 6 7 1 -2
BITMAP
7C
74
64
48
70
80
80
ENDCHAR
STARTCHAR q
ENCODING 113
SWIDTH 630 0
DWIDTH 6 0
BBX 6 7 1 -2
BITMAP
3C
4C
88
B8
E8
18
18
ENDCHAR
STARTCHAR r
ENCODING 114
SWIDTH 496 0
DWIDTH 5 0
BBX 5 5 1 0
BITMAP
D8
60
60
40
80
ENDCHAR
STARTCHAR s
ENCODING 115
SWIDTH 479 0
DWIDTH 5 0
BBX 4 5 1 0
BITMAP
F0
50
60
90
E0
ENDCHAR
STARTCHAR t
ENCODING 116
SWIDTH 375 0
DWIDTH 4 0
BBX 4 8 1 0
BITMAP
20
60
60
F0
40
40
80
E0
ENDCHAR
STARTCHAR u
ENCODING 117
SWIDTH 655 0
DWIDTH 7 0
BBX 6 5 1 0
BITMAP
CC
4C
98
A8
FC
ENDCHAR
STARTCHAR v
ENCODING 118
SWIDTH 584 0
DWIDTH 6 0
BBX 6 5 1 0
BITMAP
CC
4C
78
20
20
ENDCHAR
STARTCHAR w
ENCODING 119
SWIDTH 822 0
DWIDTH 8 0
BBX 8 5 1 0
BITMAP
CB
5B
5A
6C
68
ENDCHAR
STARTCHAR x
ENCODING 120
SWIDTH 534 0
DWIDTH 5 0
BBX 5 5 1 0
BITMAP
48
28
70
90
98
ENDCHAR
STARTCHAR y
ENCODING 121
SWIDTH 586 0
DWIDTH 6 0
BBX 7 7 0 -2
BITMAP
66
32
36
3C
10
20
C0
ENDCHAR
STARTCHAR z
ENCODING 122
SWIDTH 567 0
DWIDTH 6 0
BBX 6 5 0 0
BITMAP
7C
48
30
48
F8
ENDCHAR
STARTCHAR braceleft
ENCODING 123
SWIDTH 361 0
DWIDTH 4 0
BBX 4 10 1 -2
BITMAP
30
20
20
20
20
C0
40
80
80
C0
ENDCHAR
STARTCHAR bar
ENCODING 124
SWIDTH 253 0
DWIDTH 3 0
BBX 3 10 0 -2
BITMAP
20
20
40
40
40
80
80
80
80
80
ENDCHAR
STARTCHAR braceright
ENCODING 125
SWIDTH 361 0
DWIDTH 4 0
BBX 4 10 0 -2
BITMAP
30
30
20
20
30
40
40
40
40
C0
ENDCHAR
STARTCHAR asciitilde
ENCODING 126
SWIDTH 636 0
DWIDTH 6 0
BBX 6 2 1 2
BITMAP
44
B8
ENDCHAR
STARTCHAR space
ENCODING 160
SWIDTH 333 0
DWIDTH 3 0
BBX 1 1 0 0
BITMAP
00
ENDCHAR
STARTCHAR exclamdown
ENCODING 161
SWIDTH 265 0
DWIDTH 3 0
BBX 3 7 0 -2
BITMAP
60
00
40
40
40
C0
C0
ENDCHAR
STARTCHAR cent
ENCODING 162
SWIDTH 636 0
DWIDTH 6 0
BBX 4 8 2 0
BITMAP
20
70
70
A0
A0
A0
F0
40
ENDCHAR
STARTCHAR sterling
ENCODING 163
SWIDTH 636 0
DWIDTH 6 0
BBX 6 8 1 0
BITMAP
1C
34
20
20
70
60
40
F8
ENDCHAR
STARTCHAR currency
ENCODING 164
SWIDTH 636 0
DWIDTH 7 0
BBX 7 8 1 0
BITMAP
42
74
58
48
48
48
78
88
ENDCHAR
STARTCHAR yen
ENCODING 165
SWIDTH 636 0
DWIDTH 6 0
BBX 7 8 1 0
BITMAP
E6
4C
38
78
20
F8
20
70
ENDCHAR
STARTCHAR brokenbar
ENCODING 166
SWIDTH 253 0
DWIDTH 3 0
BBX 3 10 0 -2
BITMAP
20
20
20
20
20
80
80
80
80
80
ENDCHAR
STARTCHAR section
ENCODING 167
SWIDTH 636 0
DWIDTH 6 0
BBX 6 10 1 -2
BITMAP
3C
44
40
70
48
48
38
08
88
F0
ENDCHAR
STARTCHAR dieresis
ENCODING 168
SWIDTH 599 0
DWIDTH 6 0
BBX 3 1 3 7
BITMAP
A0
ENDCHAR
STARTCHAR copyright
ENCODING 169
SWIDTH 853 0
DWIDTH 9 0
BBX 7 8 3 0
BITMAP
1C
62
9E
A6
A2
BE
62
1C
ENDCHAR
STARTCHAR ordfeminine
ENCODING 170
SWIDTH 468 0
DWIDTH 5 0
BBX 4 5 1 3
BITMAP
70
90
A0
E0
B0
ENDCHAR
STARTCHAR guillemotleft
ENCODING 171
SWIDTH 527 0
DWIDTH 5 0
BBX 5 5 1 0
BITMAP
28
50
A0
50
50
ENDCHAR
STARTCHAR logicalnot
ENCODING 172
SWIDTH 636 0
DWIDTH 6 0
BBX 6 3 1 1
BITMAP
FC
04
04
ENDCHAR
STARTCHAR hyphen
ENCODING 173
SWIDTH 289 0
DWIDTH 3 0
BBX 2 1 1 3
BITMAP
C0
ENDCHAR
STARTCHAR registered
ENCODING 174
SWIDTH 636 0
DWIDTH 6 0
BBX 4 6 4 2
BITMAP
60
90
B0
D0
90
60
ENDCHAR
STARTCHAR macron
ENCODING 175
SWIDTH 599 0
DWIDTH 6 0
BBX 3 1 3 7
BITMAP
E0
ENDCHAR
STARTCHAR degree
ENCODING 176
SWIDTH 259 0
DWIDTH 3 0
BBX 1 3 3 5
BITMAP
80
80
80
ENDCHAR
STARTCHAR plusminus
ENCODING 177
SWIDTH 636 0
DWIDTH 6 0
BBX 7 7 0 0
BITMAP
08
08
7E
10
10
00
FC
ENDCHAR
STARTCHAR twosuperior
ENCODING 178
SWIDTH 381 0
DWIDTH 4 0
BBX 4 4 -5 4
BITMAP
70
70
60
E0
ENDCHAR
STARTCHAR threesuperior
ENCODING 179
SWIDTH 381 0
DWIDTH 4 0
BBX 3 4 -6 4
BITMAP
60
60
A0
E0
ENDCHAR
STARTCHAR acute
ENCODING 180
SWIDTH 599 0
DWIDTH 6 0
BBX 3 1 3 7
BITMAP
E0
ENDCHAR
STARTCHAR mu
ENCODING 181
SWIDTH 687 0
DWIDTH 7 0
BBX 6 7 1 -2
BITMAP
EC
4C
4C
48
7C
C0
80
ENDCHAR
STARTCHAR paragraph
ENCODING 182
SWIDTH 636 0
DWIDTH 6 0
BBX 3 10 2 -2
BITMAP
E0
E0
E0
A0
A0
A0
A0
A0
A0
A0
ENDCHAR
STARTCHAR periodcentered
ENCODING 183
SWIDTH 636 0
DWIDTH 6 0
BBX 1 1 3 3
BITMAP
80
ENDCHAR
STARTCHAR cedilla
ENCODING 184
SWIDTH 599 0
DWIDTH 6 0
BBX 2 2 2 -2
BITMAP
C0
C0
ENDCHAR
STARTCHAR onesuperior
ENCODING 185
SWIDTH 381 0
DWIDTH 4 0
BBX 2 4 -6 4
BITMAP
40
40
40
C0
ENDCHAR
STARTCHAR ordmasculine
ENCODING 186
SWIDTH 468 0
DWIDTH 5 0
BBX 3 5 2 3
BITMAP
60
A0
A0
A0
C0
ENDCHAR
STARTCHAR guillemotright
ENCODING 187
SWIDTH 527 0
DWIDTH 5 0
BBX 5 5 1 0
BITMAP
50
50
28
50
A0
ENDCHAR
STARTCHAR onequarter
ENCODING 188
SWIDTH 818 0
DWIDTH 8 0
BBX 8 8 1 0
BITMAP
43
42
44
C8
16
2E
42
C6
ENDCHAR
STARTCHAR onehalf
ENCODING 189
SWIDTH 818 0
DWIDTH 8 0
BBX 8 8 1 0
BITMAP
43
42
44
C8
1E
2E
4C
DC
ENDCHAR
STARTCHAR threequarters
ENCODING 190
SWIDTH 818 0
DWIDTH 8 0
BBX 9 8 2 0
BITMAP
6180
6100
A200
E400
0B00
1700
2100
6300
ENDCHAR
STARTCHAR questiondown
ENCODING 191
SWIDTH 493 0
DWIDTH 5 0
BBX 4 7 0 -2
BITMAP
30
00
30
20
C0
90
F0
ENDCHAR
STARTCHAR Agrave
ENCODING 192
SWIDTH 765 0
DWIDTH 8 0
BBX 8 9 0 0
BITMAP
0C
04
0C
1C
24
3E
22
42
C7
ENDCHAR
STARTCHAR Aacute
ENCODING 193
SWIDTH 765 0
DWIDTH 8 0
BBX 8 9 0 0
BITMAP
07
04
0C
1C
24
3E
22
42
C7
ENDCHAR
STARTCHAR Acircumflex
ENCODING 194
SWIDTH 765 0
DWIDTH 8 0
BBX 8 9 0 0
BITMAP
0E
04
0C
1C
24
3E
22
42
C7
ENDCHAR
STARTCHAR Atilde
ENCODING 195
SWIDTH 765 0
DWIDTH 8 0
BBX 8 9 0 0
BITMAP
0F
04
0C
1C
24
3E
22
42
C7
ENDCHAR
STARTCHAR Adieresis
ENCODING 196
SWIDTH 765 0
DWIDTH 8 0
BBX 8 9 0 0
BITMAP
0A
04
0C
1C
24
3E
22
42
C7
ENDCHAR
STARTCHAR Aring
ENCODING 197
SWIDTH 765 0
DWIDTH 8 0
BBX 8 9 0 0
BITMAP
06
04
0C
1C
24
3E
22
42
C7
ENDCHAR
STARTCHAR AE
ENCODING 198
SWIDTH 958 0
DWIDTH 10 0
BBX 10 8 0 0
BITMAP
03C0
0E40
1680
2780
2480
7C00
4480
DF80
ENDCHAR
STARTCHAR Ccedilla
ENCODING 199
SWIDTH 740 0
DWIDTH 7 0
BBX 7 10 1 -2
BITMAP
1E
62
40
80
80
80
C0
7C
60
60
ENDCHAR
STARTCHAR Egrave
ENCODING 200
SWIDTH 630 0
DWIDTH 6 0
BBX 7 9 0 0
BITMAP
08
7E
32
24
3C
68
60
64
FC
ENDCHAR
STARTCHAR Eacute
ENCODING 201
SWIDTH 630 0
DWIDTH 6 0
BBX 7 9 0 0
BITMAP
08
7E
32
24
3C
68
60
64
FC
ENDCHAR
STARTCHAR Ecircumflex
ENCODING 202
SWIDTH 630 0
DWIDTH 6 0
BBX 7 9 0 0
BITMAP
0C
7E
32
24
3C
68
60
64
FC
ENDCHAR
STARTCHAR Edieresis
ENCODING 203
SWIDTH 630 0
DWIDTH 6 0
BBX 7 9 0 0
BITMAP
14
7E
32
24
3C
68
60
64
FC
ENDCHAR
STARTCHAR Igrave
ENCODING 204
SWIDTH 372 0
DWIDTH 4 0
BBX 5 9 0 0
BITMAP
10
78
10
10
20
20
60
60
F0
ENDCHAR
STARTCHAR Iacute
ENCODING 205
SWIDTH 372 0
DWIDTH 4 0
BBX 5 9 0 0
BITMAP
10
78
10
10
20
20
60
60
F0
ENDCHAR
STARTCHAR Icircumflex
ENCODING 206
SWIDTH 372 0
DWIDTH 4 0
BBX 5 9 0 0
BITMAP
18
78
10
10
20
20
60
60
F0
ENDCHAR
STARTCHAR Idieresis
ENCODING 207
SWIDTH 372 0
DWIDTH 4 0
BBX 5 9 0 0
BITMAP
28
78
10
10
20
20
60
60
F0
ENDCHAR
STARTCHAR Eth
ENCODING 208
SWIDTH 822 0
DWIDTH 8 0
BBX 8 8 0 0
BITMAP
7E
23
21
F9
61
62
46
FC
ENDCHAR
STARTCHAR Ntilde
ENCODING 209
SWIDTH 797 0
DWIDTH 8 0
BBX 9 9 0 0
BITMAP
1E00
6180
3100
3100
2900
4A00
4600
4600
C200
ENDCHAR
STARTCHAR Ograve
ENCODING 210
SWIDTH 831 0
DWIDTH 8 0
BBX 7 9 2 0
BITMAP
08
3C
64
46
86
84
84
88
70
ENDCHAR
STARTCHAR Oacute
ENCODING 211
SWIDTH 831 0
DWIDTH 8 0
BBX 7 9 2 0
BITMAP
08
3C
64
46
86
84
84
88
70
ENDCHAR
STARTCHAR Ocircumflex
ENCODING 212
SWIDTH 831 0
DWIDTH 8 0
BBX 7 9 2 0
BITMAP
0C
3C
64
46
86
84
84
88
70
ENDCHAR
STARTCHAR Otilde
ENCODING 213
SWIDTH 831 0
DWIDTH 8 0
BBX 7 9 2 0
BITMAP
3C
3C
64
46
86
84
84
88
70
ENDCHAR
STARTCHAR Odieresis
ENCODING 214
SWIDTH 831 0
DWIDTH 8 0
BBX 7 9 2 0
BITMAP
14
3C
64
46
86
84
84
88
70
ENDCHAR
STARTCHAR multiply
ENCODING 215
SWIDTH 636 0
DWIDTH 6 0
BBX 7 7 0 0
BITMAP
42
64
18
10
30
4C
84
ENDCHAR
STARTCHAR Oslash
ENCODING 216
SWIDTH 831 0
DWIDTH 8 0
BBX 8 8 1 0
BITMAP
1D
22
46
4A
52
66
44
B8
ENDCHAR
STARTCHAR Ugrave
ENCODING 217
SWIDTH 775 0
DWIDTH 8 0
BBX 6 9 2 0
BITMAP
10
E4
44
44
88
88
88
88
70
ENDCHAR
STARTCHAR Uacute
ENCODING 218
SWIDTH 775 0
DWIDTH 8 0
BBX 6 9 2 0
BITMAP
18
E4
44
44
88
88
88
88
70
ENDCHAR
STARTCHAR Ucircumflex
ENCODING 219
SWIDTH 775 0
DWIDTH 8 0
BBX 6 9 2 0
BITMAP
18
E4
44
44
88
88
88
88
70
ENDCHAR
STARTCHAR Udieresis
ENCODING 220
SWIDTH 775 0
DWIDTH 8 0
BBX 6 9 2 0
BITMAP
28
E4
44
44
88
88
88
88
70
ENDCHAR
STARTCHAR Yacute
ENCODING 221
SWIDTH 669 0
DWIDTH 7 0
BBX 7 9 1 0
BITMAP
1C
E6
44
44
28
30
20
20
F0
ENDCHAR
STARTCHAR Thorn
ENCODING 222
SWIDTH 628 0
DWIDTH 6 0
BBX 6 8 1 0
BITMAP
70
30
3C
24
64
78
40
E0
ENDCHAR
STARTCHAR germandbls
ENCODING 223
SWIDTH 656 0
DWIDTH 7 0
BBX 6 10 1 -2
BITMAP
38
24
6C
70
78
44
54
D8
C0
C0
ENDCHAR
STARTCHAR agrave
ENCODING 224
SWIDTH 634 0
DWIDTH 6 0
BBX 6 6 1 0
BITMAP
08
3C
4C
88
B8
FC
ENDCHAR
STARTCHAR aacute
ENCODING 225
SWIDTH 634 0
DWIDTH 6 0
BBX 6 6 1 0
BITMAP
08
3C
4C
88
B8
FC
ENDCHAR
STARTCHAR acircumflex
ENCODING 226
SWIDTH 634 0
DWIDTH 6 0
BBX 6 6 1 0
BITMAP
18
3C
4C
88
B8
FC
ENDCHAR
STARTCHAR atilde
ENCODING 227
SWIDTH 634 0
DWIDTH 6 0
BBX 6 6 1 0
BITMAP
3C
3C
4C
88
B8
FC
ENDCHAR
STARTCHAR adieresis
ENCODING 228
SWIDTH 634 0
DWIDTH 6 0
BBX 6 6 1 0
BITMAP
14
3C
4C
88
B8
FC
ENDCHAR
STARTCHAR aring
ENCODING 229
SWIDTH 634 0
DWIDTH 6 0
BBX 6 6 1 0
BITMAP
18
3C
4C
88
B8
FC
ENDCHAR
STARTCHAR ae
ENCODING 230
SWIDTH 905 0
DWIDTH 9 0
BBX 9 5 0 0
BITMAP
3F80
4480
9F00
9480
F700
ENDCHAR
STARTCHAR ccedilla
ENCODING 231
SWIDTH 524 0
DWIDTH 5 0
BBX 5 7 1 -2
BITMAP
38
50
80
80
F0
C0
C0
ENDCHAR
STARTCHAR egrave
ENCODING 232
SWIDTH 548 0
DWIDTH 5 0
BBX 4 6 1 0
BITMAP
30
30
50
E0
90
F0
ENDCHAR
STARTCHAR eacute
ENCODING 233
SWIDTH 548 0
DWIDTH 5 0
BBX 5 6 1 0
BITMAP
38
30
50
E0
90
F0
ENDCHAR
STARTCHAR ecircumflex
ENCODING 234
SWIDTH 548 0
DWIDTH 5 0
BBX 5 6 1 0
BITMAP
38
30
50
E0
90
F0
ENDCHAR
STARTCHAR edieresis
ENCODING 235
SWIDTH 548 0
DWIDTH 5 0
BBX 5 6 1 0
BITMAP
28
30
50
E0
90
F0
ENDCHAR
STARTCHAR igrave
ENCODING 236
SWIDTH 319 0
DWIDTH 3 0
BBX 3 6 1 0
BITMAP
20
E0
40
40
40
E0
ENDCHAR
STARTCHAR iacute
ENCODING 237
SWIDTH 319 0
DWIDTH 3 0
BBX 4 6 1 0
BITMAP
30
E0
40
40
40
E0
ENDCHAR
STARTCHAR icircumflex
ENCODING 238
SWIDTH 319 0
DWIDTH 3 0
BBX 4 6 1 0
BITMAP
30
E0
40
40
40
E0
ENDCHAR
STARTCHAR idieresis
ENCODING 239
SWIDTH 319 0
DWIDTH 3 0
BBX 4 6 1 0
BITMAP
50
E0
40
40
40
E0
ENDCHAR
STARTCHAR eth
ENCODING 240
SWIDTH 617 0
DWIDTH 6 0
BBX 4 8 1 0
BITMAP
70
70
90
30
50
90
90
E0
ENDCHAR
STARTCHAR ntilde
ENCODING 241
SWIDTH 656 0
DWIDTH 7 0
BBX 6 6 1 0
BITMAP
3C
EC
54
64
48
CC
ENDCHAR
STARTCHAR ograve
ENCODING 242
SWIDTH 599 0
DWIDTH 6 0
BBX 5 6 1 0
BITMAP
30
30
48
88
90
E0
ENDCHAR
STARTCHAR oacute
ENCODING 243
SWIDTH 599 0
DWIDTH 6 0
BBX 5 6 1 0
BITMAP
38
30
48
88
90
E0
ENDCHAR
STARTCHAR ocircumflex
ENCODING 244
SWIDTH 599 0
DWIDTH 6 0
BBX 5 6 1 0
BITMAP
38
30
48
88
90
E0
ENDCHAR
STARTCHAR otilde
ENCODING 245
SWIDTH 599 0
DWIDTH 6 0
BBX 5 6 1 0
BITMAP
78
30
48
88
90
E0
ENDCHAR
STARTCHAR odieresis
ENCODING 246
SWIDTH 599 0
DWIDTH 6 0
BBX 5 6 1 0
BITMAP
28
30
48
88
90
E0
ENDCHAR
STARTCHAR divide
ENCODING 247
SWIDTH 636 0
DWIDTH 6 0
BBX 6 5 1 0
BITMAP
10
00
FC
00
20
ENDCHAR
STARTCHAR oslash
ENCODING 248
SWIDTH 599 0
DWIDTH 6 0
BBX 5 5 1 0
BITMAP
38
48
78
D0
E0
ENDCHAR
STARTCHAR ugrave
ENCODING 249
SWIDTH 655 0
DWIDTH 7 0
BBX 6 6 1 0
BITMAP
18
CC
4C
98
A8
FC
ENDCHAR
STARTCHAR uacute
ENCODING 250
SWIDTH 655 0
DWIDTH 7 0
BBX 6 6 1 0
BITMAP
1C
CC
4C
98
A8
FC
ENDCHAR
STARTCHAR ucircumflex
ENCODING 251
SWIDTH 655 0
DWIDTH 7 0
BBX 6 6 1 0
BITMAP
38
CC
4C
98
A8
FC
ENDCHAR
STARTCHAR udieresis
ENCODING 252
SWIDTH 655 0
DWIDTH 7 0
BBX 6 6 1 0
BITMAP
28
CC
4C
98
A8
FC
ENDCHAR
STARTCHAR yacute
ENCODING 253
SWIDTH 586 0
DWIDTH 6 0
BBX 7 8 0 -2
BITMAP
0E
66
32
36
3C
10
20
C0
ENDCHAR
STARTCHAR thorn
ENCODING 254
SWIDTH 639 0
DWIDTH 6 0
BBX 6 10 1 -2
BITMAP
60
20
20
7C
74
64
48
70
40
80
ENDCHAR
STARTCHAR ydieresis
ENCODING 255
SWIDTH 586 0
DWIDTH 6 0
BBX 7 8 0 -2
BITMAP
14
66
32
36
3C
10
20
C0
ENDCHAR
ENDFONT
